<svg width="60" height="60" viewBox="0 0 709 467" fill="none" xmlns="http://www.w3.org/2000/svg">
  <g>
    <path d="M 183.5 466.5 L 246.5 0 L 312.5 0 L 249.5 466.5 L 183.5 466.5 Z M 0 466.5 L 63 0 L 129 0 L 66 466.5 L 0 466.5 Z M 509.5 466.5 L 572.5 0 L 638.5 0 L 575.5 466.5 L 509.5 466.5 Z M 354.5 466.5 L 417.5 0 L 483.5 0 L 420.5 466.5 L 354.5 466.5 Z" fill="#E31B23"/>
    <path d="M 354.5 466.5 L 417.5 0 L 483.5 0 L 420.5 466.5 L 354.5 466.5 Z" fill="#E31B23"/>
    <path d="M 183.5 466.5 L 246.5 0 L 312.5 0 L 249.5 466.5 L 183.5 466.5 Z" fill="#E31B23"/>
    <path d="M 0 466.5 L 63 0 L 129 0 L 66 466.5 L 0 466.5 Z" fill="#E31B23"/>
    <path d="M 509.5 466.5 L 572.5 0 L 638.5 0 L 575.5 466.5 L 509.5 466.5 Z" fill="#E31B23"/>
  </g>
</svg> 